<?xml version="1.0" encoding="utf-8"?>
<!-- Generator: Adobe Illustrator 18.0.0, SVG Export Plug-In . SVG Version: 6.00 Build 0)  -->
<!DOCTYPE svg PUBLIC "-//W3C//DTD SVG 1.1//EN" "http://www.w3.org/Graphics/SVG/1.1/DTD/svg11.dtd">
<svg version="1.1" id="图层_1" xmlns="http://www.w3.org/2000/svg" xmlns:xlink="http://www.w3.org/1999/xlink" x="0px" y="0px"
	 viewBox="0 0 1000 1000" style="enable-background:new 0 0 1000 1000;" xml:space="preserve">
<style type="text/css">
	.st0{fill:#06ACF2;}
</style>
<path class="st0" d="M164,580h-22V422.7c0-1.1,0.9-2,2-2h18c1.1,0,2,0.9,2,2V580z"/>
<path class="st0" d="M199,580h-22V476.7c0-1.1,0.9-2,2-2h18c1.1,0,2,0.9,2,2V580z"/>
<path class="st0" d="M235,580h-22V441.7c0-1.1,0.9-2,2-2h18c1.1,0,2,0.9,2,2V580z"/>
<path class="st0" d="M270,580h-22v-66.3c0-1.1,0.9-2,2-2h18c1.1,0,2,0.9,2,2V580z"/>
<path class="st0" d="M306,580h-22V422.7c0-1.1,0.9-2,2-2h18c1.1,0,2,0.9,2,2V580z"/>
<path class="st0" d="M340,580h-22V476.7c0-1.1,0.9-2,2-2h18c1.1,0,2,0.9,2,2V580z"/>
<path class="st0" d="M375,580h-22V440.7c0-1.1,0.9-2,2-2h18c1.1,0,2,0.9,2,2V580z"/>
<path class="st0" d="M411,580h-22v-67.3c0-1.1,0.9-2,2-2h18c1.1,0,2,0.9,2,2V580z"/>
<path class="st0" d="M447,580h-22v-66.3c0-1.1,0.9-2,2-2h18c1.1,0,2,0.9,2,2V580z"/>
<path class="st0" d="M481,580h-22V476.7c0-1.1,0.9-2,2-2h18c1.1,0,2,0.9,2,2V580z"/>
<path class="st0" d="M517,580h-22V422.7c0-1.1,0.9-2,2-2h18c1.1,0,2,0.9,2,2V580z"/>
<path class="st0" d="M552,580h-22v-67.3c0-1.1,0.9-2,2-2h18c1.1,0,2,0.9,2,2V580z"/>
<path class="st0" d="M586,580h-22V477.7c0-1.1,0.9-2,2-2h18c1.1,0,2,0.9,2,2V580z"/>
<path class="st0" d="M620,580h-22V422.7c0-1.1,0.9-2,2-2h18c1.1,0,2,0.9,2,2V580z"/>
<path class="st0" d="M657,580h-22V440.7c0-1.1,0.9-2,2-2h18c1.1,0,2,0.9,2,2V580z"/>
<path class="st0" d="M693,580h-22v-67.3c0-1.1,0.9-2,2-2h18c1.1,0,2,0.9,2,2V580z"/>
<path class="st0" d="M728,580h-22V476.7c0-1.1,0.9-2,2-2h18c1.1,0,2,0.9,2,2V580z"/>
<path class="st0" d="M762,580h-22V422.7c0-1.1,0.9-2,2-2h18c1.1,0,2,0.9,2,2V580z"/>
<path class="st0" d="M797,580h-22v-66.3c0-1.1,0.9-2,2-2h18c1.1,0,2,0.9,2,2V580z"/>
<path class="st0" d="M833,580h-22V476.7c0-1.1,0.9-2,2-2h18c1.1,0,2,0.9,2,2V580z"/>
<path class="st0" d="M868,580h-22V422.7c0-1.1,0.9-2,2-2h18c1.1,0,2,0.9,2,2V580z"/>
</svg>
