<?xml version="1.0" encoding="utf-8"?>
<!-- Generator: Adobe Illustrator 18.0.0, SVG Export Plug-In . SVG Version: 6.00 Build 0)  -->
<!DOCTYPE svg PUBLIC "-//W3C//DTD SVG 1.1//EN" "http://www.w3.org/Graphics/SVG/1.1/DTD/svg11.dtd">
<svg version="1.1" id="图层_1" xmlns="http://www.w3.org/2000/svg" xmlns:xlink="http://www.w3.org/1999/xlink" x="0px" y="0px"
	 viewBox="0 0 1000 1000" style="enable-background:new 0 0 1000 1000;" xml:space="preserve">
<style type="text/css">
	.st0{fill:#040000;}
	.st1{fill:none;stroke:#040000;stroke-width:50;stroke-miterlimit:10;}
</style>
<g>
	<path class="st0" d="M495.7,490.7c-104.7,0-189.8-85.1-189.8-189.8s85.1-189.8,189.8-189.8s189.8,85.1,189.8,189.8
		S600.4,490.7,495.7,490.7z M495.7,161.1c-77.1,0-139.8,62.7-139.8,139.8c0,77.1,62.7,139.8,139.8,139.8
		c77.1,0,139.8-62.7,139.8-139.8C635.5,223.8,572.8,161.1,495.7,161.1z"/>
</g>
<g>
	<path class="st0" d="M168.5,875.3c-12.5,0-23.3-9.4-24.8-22.1c-1.7-14.8-2.6-29.7-2.6-44.2c0-49.3,9.7-97.2,28.7-142.3
		c18.4-43.5,44.8-82.6,78.3-116.2c33.6-33.6,72.6-59.9,116.2-78.3c45.1-19.1,93-28.7,142.3-28.7c49.3,0,97.2,9.7,142.3,28.7
		c43.5,18.4,82.6,44.8,116.2,78.3c33.6,33.6,59.9,72.6,78.3,116.2c19.1,45.1,28.7,93,28.7,142.3c0,11.8-0.6,24-1.8,37.2
		c-1.3,13.7-13.5,23.9-27.2,22.6c-13.7-1.3-23.9-13.5-22.6-27.2c1.1-11.7,1.6-22.3,1.6-32.6c0-174-141.5-315.5-315.5-315.5
		c-174,0-315.5,141.5-315.5,315.5c0,12.6,0.8,25.5,2.3,38.3c1.6,13.7-8.2,26.1-21.9,27.8C170.5,875.2,169.5,875.3,168.5,875.3z"/>
</g>
<g>
	<path class="st1" d="M307.3,757.3"/>
</g>
</svg>
