<?xml version="1.0" encoding="utf-8"?>
<!-- Generator: Adobe Illustrator 21.0.2, SVG Export Plug-In . SVG Version: 6.00 Build 0)  -->
<svg version="1.1" id="图层_1" xmlns="http://www.w3.org/2000/svg" xmlns:xlink="http://www.w3.org/1999/xlink" x="0px" y="0px"
	 viewBox="0 0 1024 1024" style="enable-background:new 0 0 1024 1024;" xml:space="preserve">
<g>
	<path d="M904.6,130.3H830V35.1c0-19.8-16.1-35.9-35.9-35.9h-2.6c-19.8,0-35.9,16.1-35.9,35.9v95.2H271.5V35.1
		c0-19.8-16.1-35.9-35.9-35.9H233c-19.8,0-35.9,16.1-35.9,35.9v95.2h-78.2C53,130.3-0.5,183.9-0.5,249.7v657
		c0,65.8,53.6,119.4,119.4,119.4h785.7c65.8,0,119.4-53.6,119.4-119.4v-657C1024,183.9,970.4,130.3,904.6,130.3L904.6,130.3z
		 M802.5,584.7L475,912.1c-3.3,3.3-7.1,6.1-11.3,8.4c-7.2,4.1-15.3,6.3-23.5,6.3c-12.6,0-24.5-4.9-33.5-13.9L229.4,735.6
		c-18.4-18.5-18.4-48.5,0-67c9-8.9,20.9-13.9,33.5-13.9c12.6,0,24.5,4.9,33.5,13.8l144.1,144.1l295-295c9-8.9,20.8-13.9,33.5-13.9
		c12.7,0,24.5,4.9,33.5,13.9C821,536.2,821,566.2,802.5,584.7L802.5,584.7z M939,393.3H85.8V228.6H939V393.3z M939,393.3"/>
</g>
</svg>
