<?xml version="1.0" encoding="utf-8"?>
<!-- Generator: Adobe Illustrator 21.0.2, SVG Export Plug-In . SVG Version: 6.00 Build 0)  -->
<svg version="1.1" id="图层_1" xmlns="http://www.w3.org/2000/svg" xmlns:xlink="http://www.w3.org/1999/xlink" x="0px" y="0px"
	 viewBox="0 0 1024 1024" style="enable-background:new 0 0 1024 1024;" xml:space="preserve">
<path d="M873.5,150.6c-200-200-523.1-200-723.1,0c-200.1,200-201.1,524.2-1,724.2c200,200,525.1,200,725.1,0
	C1074.5,674.7,1073.5,350.6,873.5,150.6L873.5,150.6z M701.4,484.4v101.2H562.9v40.6h138.6v99.7H562.9v107.9H451.6V725.9h-138v-99.7
	h138v-40.6h-138V484.4h84L269.6,235h126.7l82.3,170.9c10.5,22,17.8,35.5,22.3,52.2c5.3-18.1,12.6-31.6,22.3-52.2L607,235h126.7
	L604.1,484.4H701.4z"/>
</svg>
