<?xml version="1.0" encoding="utf-8"?>
<!-- Generator: Adobe Illustrator 21.0.2, SVG Export Plug-In . SVG Version: 6.00 Build 0)  -->
<svg version="1.1" id="图层_1" xmlns="http://www.w3.org/2000/svg" xmlns:xlink="http://www.w3.org/1999/xlink" x="0px" y="0px"
	 viewBox="0 0 1024 1024" style="enable-background:new 0 0 1024 1024;" xml:space="preserve">
<path d="M991.9,757.3c0,0-85.9,0.3-181.9,0.3c-71.5,0-121.2-19.1-121.2-110.1c0-84.3,48.2-115,126.3-115.1h176.7
	c18.9,0,34.3,13.2,34.3,32.1v158.5C1026.1,742,1010.8,757.3,991.9,757.3L991.9,757.3z M781.4,599c-26.9,0-48.7,21.8-48.7,48.6
	c0,26.9,21.8,48.6,48.7,48.6c26.9,0,48.6-21.8,48.6-48.6C830,620.7,808.3,599,781.4,599L781.4,599z M684.5,777.9
	c9.6,0,238.4,1.5,300.5,1.5v73.2c0,94.6-69.9,171.3-164.6,171.3H169.3C74.7,1024-2,947.3-2,852.7V442.5
	c0-94.6,76.7-178.2,171.3-178.2h651.2c94.7,0,164.6,83.6,164.6,178.2v69.6H683.4C614.9,512.1,614.9,777.9,684.5,777.9L684.5,777.9z
	 M599.9,105.1L304.3,224.9H137.2l483-224.7l175.6,224.7H687.7L599.9,105.1z M599.9,105.1"/>
</svg>
