<?xml version="1.0" encoding="utf-8"?>
<!-- Generator: Adobe Illustrator 18.0.0, SVG Export Plug-In . SVG Version: 6.00 Build 0)  -->
<!DOCTYPE svg PUBLIC "-//W3C//DTD SVG 1.1//EN" "http://www.w3.org/Graphics/SVG/1.1/DTD/svg11.dtd">
<svg version="1.1" id="图层_1" xmlns="http://www.w3.org/2000/svg" xmlns:xlink="http://www.w3.org/1999/xlink" x="0px" y="0px"
	 viewBox="0 0 1000 1000" enable-background="new 0 0 1000 1000" xml:space="preserve">
<g>
	<path fill-rule="evenodd" clip-rule="evenodd" d="M448.1,780.2H285.8c-12.3,0-22.3-10-22.3-22.3V223.2c0-12.3,10-22.3,22.3-22.3
		h423.3c12.3,0,22.3,10,22.3,22.3v189.4c0,12.3,10,22.3,22.3,22.3c12.3,0,22.3-10,22.3-22.3V223.2c0-36.8-30.1-66.8-66.8-66.8H285.8
		c-36.8,0-66.8,30.1-66.8,66.8v534.7c0,36.8,30.1,66.8,66.8,66.8h162.3c12.3,0,22.3-10,22.3-22.3
		C470.4,790.2,460.3,780.2,448.1,780.2L448.1,780.2z"/>
</g>
<path fill-rule="evenodd" clip-rule="evenodd" d="M658.6,278.9H324.4c-12.3,0-22.3,10-22.3,22.3c0,12.3,10,22.3,22.3,22.3h334.2
	c12.3,0,22.3-10,22.3-22.3C680.9,289,670.9,278.9,658.6,278.9L658.6,278.9z"/>
<path fill-rule="evenodd" clip-rule="evenodd" d="M658.6,390.3H324.4c-12.3,0-22.3,10-22.3,22.3c0,12.3,10,22.3,22.3,22.3h334.2
	c12.3,0,22.3-10,22.3-22.3C680.9,400.4,670.9,390.3,658.6,390.3L658.6,390.3z"/>
<path fill-rule="evenodd" clip-rule="evenodd" d="M528.7,501.7H324.4c-12.3,0-22.3,10-22.3,22.3c0,12.3,10,22.3,22.3,22.3h204.2
	c12.3,0,22.3-10,22.3-22.3C550.9,511.7,540.9,501.7,528.7,501.7L528.7,501.7z"/>
<path fill-rule="evenodd" clip-rule="evenodd" d="M800.1,845.2H583.2c-11.1,0-20.4,9.3-20.4,20.4c0,11.1,9.3,20.4,20.4,20.4h216.8
	c11.1,0,20-8.9,20.4-20.8C820.5,854.1,811.2,845.2,800.1,845.2L800.1,845.2z"/>
<path fill-rule="evenodd" clip-rule="evenodd" d="M794.5,685.1h-42.7c-5.6-13,1.5-37.5,19.3-66.5l0.4-0.7v-0.4
	c0.4-0.4,0.7-1.1,0.7-1.1c7.8-14.9,15.6-33.4,15.6-57.6c0-53.8-42.3-96.5-96.5-96.9h-0.7c-54.2,0.4-96.2,43.1-96.2,96.9
	c0,24.1,7.8,42.3,15.6,57.2c0.4,1.1,0.7,1.9,1.1,2.2l0.4,0.4c17.8,29,24.9,53.1,19.3,66.5h-42.7c-24.1,0-43.4,20.1-43.4,44.9v71.7
	c0,10,8.2,18.2,18.2,18.2h257.3c10,0,17.8-8.2,17.8-17.8v-72C838,705.2,818.6,685.1,794.5,685.1z M797.5,778.7H584.7v-48.6
	c0-2.2,1.5-3.7,3.3-3.7h60.5l2.6-2.2c31.2-25.6,29.3-70.5-5.2-126.6c-7.1-13.7-11.1-24.5-11.1-38.6c0-31.6,24.5-55.7,56.4-56.1
	c32.3,0.4,56.4,24.5,56.4,56.1c0,14.5-4.1,25.2-11.1,38.6c-34.5,56.1-36,101-5.2,126.6l2.6,2.2h60.2c1.9,0,3.3,1.5,3.3,3.7V778.7z"
	/>
<path fill-rule="evenodd" clip-rule="evenodd" d="M468.1,613.1H324.4c-12.3,0-22.3,10-22.3,22.3c0,12.3,10,22.3,22.3,22.3h143.7
	c12.3,0,22.3-10,22.3-22.3C490.4,623.1,480.4,613.1,468.1,613.1L468.1,613.1z"/>
</svg>
