<?xml version="1.0" encoding="utf-8"?>
<!-- Generator: Adobe Illustrator 18.0.0, SVG Export Plug-In . SVG Version: 6.00 Build 0)  -->
<!DOCTYPE svg PUBLIC "-//W3C//DTD SVG 1.1//EN" "http://www.w3.org/Graphics/SVG/1.1/DTD/svg11.dtd">
<svg version="1.1" id="图层_1" xmlns="http://www.w3.org/2000/svg" xmlns:xlink="http://www.w3.org/1999/xlink" x="0px" y="0px"
	 viewBox="0 0 1000 1000" style="enable-background:new 0 0 1000 1000;" xml:space="preserve">
<style type="text/css">
	.st0{fill:#040000;}
	.st1{fill:none;stroke:#040000;stroke-width:50;stroke-miterlimit:10;}
</style>
<g>
	<path class="st0" d="M425.9,486.7H158.4c-21.7,0-39.4-17.7-39.4-39.4V179.8c0-21.7,17.7-39.4,39.4-39.4h267.5
		c21.7,0,39.4,17.7,39.4,39.4v267.5C465.3,469,447.6,486.7,425.9,486.7z M169,436.7h246.2V190.5H169V436.7z"/>
</g>
<g>
	<path class="st0" d="M825.2,486.7H557.7c-21.7,0-39.4-17.7-39.4-39.4V179.8c0-21.7,17.7-39.4,39.4-39.4h267.5
		c21.7,0,39.4,17.7,39.4,39.4v267.5C864.5,469,846.9,486.7,825.2,486.7z M568.3,436.7h246.2V190.5H568.3V436.7z"/>
</g>
<g>
	<path class="st0" d="M425.9,883.4H158.4c-21.7,0-39.4-17.7-39.4-39.4V576.6c0-21.7,17.7-39.4,39.4-39.4h267.5
		c21.7,0,39.4,17.7,39.4,39.4v267.5C465.3,865.8,447.6,883.4,425.9,883.4z M169,833.4h246.2V587.2H169V833.4z"/>
</g>
<g>
	<path class="st0" d="M825.2,883.4H557.7c-21.7,0-39.4-17.7-39.4-39.4V576.6c0-21.7,17.7-39.4,39.4-39.4h267.5
		c21.7,0,39.4,17.7,39.4,39.4v267.5C864.5,865.8,846.9,883.4,825.2,883.4z M568.3,833.4h246.2V587.2H568.3V833.4z"/>
</g>
</svg>
