<?xml version="1.0" encoding="utf-8"?>
<!-- Generator: Adobe Illustrator 18.0.0, SVG Export Plug-In . SVG Version: 6.00 Build 0)  -->
<!DOCTYPE svg PUBLIC "-//W3C//DTD SVG 1.1//EN" "http://www.w3.org/Graphics/SVG/1.1/DTD/svg11.dtd">
<svg version="1.1" id="图层_1" xmlns="http://www.w3.org/2000/svg" xmlns:xlink="http://www.w3.org/1999/xlink" x="0px" y="0px"
	 viewBox="0 0 1000 1000" enable-background="new 0 0 1000 1000" xml:space="preserve">
<g>
	<path d="M527.3,559.7c-61.6,0-119.4-24-163-67.5c-43.5-43.5-67.5-101.4-67.5-163s24-119.4,67.5-163c43.5-43.5,101.4-67.5,163-67.5
		s119.4,24,163,67.5c43.5,43.5,67.5,101.4,67.5,163c0,61.6-24,119.4-67.5,163C646.8,535.7,588.9,559.7,527.3,559.7z M527.3,148.7
		c-99.5,0-180.5,81-180.5,180.5s81,180.5,180.5,180.5s180.5-81,180.5-180.5S626.8,148.7,527.3,148.7z"/>
</g>
<g>
	<path d="M115.9,906.6l2.7-27.5c6.8-69.3,31.3-136.1,71.1-193.3c38.9-56,91.6-101.8,152.4-132.4c12.3-6.2,27.4-1.3,33.6,11.1
		s1.3,27.4-11.1,33.6c-102.5,51.7-173,147-192.5,258.4l707.8-2.8c-31-169.4-178.4-294-353.6-294c-13.8,0-25-11.2-25-25
		c0-13.8,11.2-25,25-25c101.8,0,199.4,37.6,274.9,105.9C876,683.4,923,775.9,933.5,875.9l2.9,27.5L115.9,906.6z"/>
</g>
<g>
	<path d="M531.5,834.7c-11.3,0-22-4.2-30.3-11.9L465,789.4c-10.9-10.1-16.1-24.9-13.8-39.6l16.1-104.1c3.4-21.9,21.9-37.8,44.1-37.8
		h35.4c22,0,40.9,16.4,44.1,38.1l15.5,105.3c2,13.7-2.3,27.3-11.9,37.3l-30.8,32.3C555.4,829.7,543.6,834.7,531.5,834.7z
		 M501.1,754.6l30.2,27.9l25.3-26.6l-14.4-98.1h-26.1L501.1,754.6z"/>
</g>
</svg>
