<?xml version="1.0" encoding="utf-8"?>
<!-- Generator: Adobe Illustrator 18.0.0, SVG Export Plug-In . SVG Version: 6.00 Build 0)  -->
<!DOCTYPE svg PUBLIC "-//W3C//DTD SVG 1.1//EN" "http://www.w3.org/Graphics/SVG/1.1/DTD/svg11.dtd">
<svg version="1.1" id="图层_1" xmlns="http://www.w3.org/2000/svg" xmlns:xlink="http://www.w3.org/1999/xlink" x="0px" y="0px"
	 viewBox="0 0 1000 1000" style="enable-background:new 0 0 1000 1000;" xml:space="preserve">
<style type="text/css">
	.st0{fill:#040000;}
	.st1{fill-rule:evenodd;clip-rule:evenodd;}
</style>
<g>
	<g>
		<path class="st0" d="M743.3,627.9c-4.8,0-9.7-1.4-14-4.3c-11.4-7.7-14.4-23.3-6.7-34.7C753,544,769,491.6,769,437.1
			c0-149.7-121.8-271.5-271.5-271.5C347.8,165.6,226,287.4,226,437.1c0,13.8-11.2,25-25,25c-13.8,0-25-11.2-25-25
			c0-85.9,33.4-166.6,94.2-227.3c60.7-60.7,141.5-94.2,227.3-94.2s166.6,33.4,227.3,94.2c60.7,60.7,94.2,141.5,94.2,227.3
			c0,64.5-19,126.6-55,179.8C759.2,624.1,751.4,627.9,743.3,627.9z"/>
	</g>
	<g>
		<path class="st0" d="M598.7,890.2C598.7,890.2,598.7,890.2,598.7,890.2c-73.1,0-129.3-1.7-167-5c-59.8-5.2-119.9-31.1-178.7-76.9
			c-48.9-38.1-87.6-83.1-111.4-114.1c-38-49.5-33.6-103.4-18.2-134.6c11.1-22.5,28.3-35.4,47.2-35.4c1.6,0,3.3,0.1,4.9,0.3
			c22.9,2.9,47.5,25.6,96.5,72.5c24.6,23.5,52.5,50.2,81,73.6c32.5,26.6,112.5,41.8,219.7,41.8c2.1,0,4.2,0,6.3,0
			c-9.8-17-19.9-36-24-48.9c-5.3-16.7-1.3-29,3-36.3c10.3-17.5,30.4-21.5,37-22.8c0.2,0,0.3-0.1,0.5-0.1c2.1-0.5,4.3-0.8,6.4-0.8
			c5.3,0,6.8,0,50.5,16.6c22.7,8.6,53.2,20.4,86,33.3c32.1,12.6,62.4,24.6,85.5,33.9c25.5,10.3,36.2,14.7,41.6,17.5
			c0.9,0.4,1.7,0.9,2.5,1.4c0.9,0.6,1.6,1.1,2.2,1.6c5.7,4.6,9.4,11.6,9.4,19.5v133c0,13.4-10.6,24.5-24.1,25
			C854.4,885.4,722.5,890.2,598.7,890.2z M171.9,575.8c-2.8,3.5-6.6,10.6-8.5,21.2c-2.4,13.1-3.3,39.3,17.9,66.8
			c46,59.8,140.2,161.6,254.9,171.6c36.2,3.2,91,4.8,162.6,4.8c91.5,0,187.5-2.7,231.1-4v-92.5c-44.7-18.6-185.1-73.5-224.1-87.7
			c8,18,26.7,48.9,38.1,66.6c4.8,7.5,5.4,16.9,1.4,24.9c-4,7.9-11.9,13.2-20.8,13.7c-0.9,0.1-21.3,1.3-51.7,1.3
			c-85.1,0-197.8-9.2-251.4-53.1c-30-24.6-58.7-52-83.9-76.1c-16.7-16-32.4-31-45.3-42.1C181.6,582.1,175.3,577.8,171.9,575.8z
			 M594.7,604.6c-0.1,0-0.3,0.1-0.5,0.1C594.4,604.7,594.5,604.6,594.7,604.6z"/>
	</g>
	<g>
		<path class="st0" d="M500.8,368.9c-6.3,0-12.5-2.3-17.3-7l-86.8-83.5c-10-9.6-10.3-25.4-0.7-35.3c9.6-9.9,25.4-10.3,35.3-0.7
			l69.8,67.2l70.6-64.8c10.2-9.3,26-8.7,35.3,1.5c9.3,10.2,8.7,26-1.5,35.3l-87.9,80.7C512.9,366.7,506.9,368.9,500.8,368.9z"/>
	</g>
	<g>
		<path class="st0" d="M502.4,613.4c-13.8,0-25-11.2-25-25V356c0-13.8,11.2-25,25-25s25,11.2,25,25v232.4
			C527.4,602.2,516.2,613.4,502.4,613.4z"/>
	</g>
	<g>
		<path class="st0" d="M588.7,428.8H407.3c-13.8,0-25-11.2-25-25s11.2-25,25-25h181.4c13.8,0,25,11.2,25,25S602.5,428.8,588.7,428.8
			z"/>
	</g>
	<g>
		<path class="st0" d="M588.7,515H407.3c-13.8,0-25-11.2-25-25s11.2-25,25-25h181.4c13.8,0,25,11.2,25,25S602.5,515,588.7,515z"/>
	</g>
</g>
</svg>
