<?xml version="1.0" encoding="utf-8"?>
<!-- Generator: Adobe Illustrator 21.0.2, SVG Export Plug-In . SVG Version: 6.00 Build 0)  -->
<svg version="1.1" id="图层_1" xmlns="http://www.w3.org/2000/svg" xmlns:xlink="http://www.w3.org/1999/xlink" x="0px" y="0px"
	 viewBox="0 0 1024 1024" style="enable-background:new 0 0 1024 1024;" xml:space="preserve">
<path d="M553,72c-15.6-7.4-34.1-5-47.4,6.1l-256,213.2l-204.1-0.8h-0.1c-11.8,0-23,4.6-31.4,13C5.6,311.7,0.8,323,0.8,334.9
	l-1.1,356.2c0,11.9,4.6,23.1,13,31.5c8.4,8.5,19.6,13.1,31.5,13.1h206.5l254.8,212.4c8.1,6.8,18.3,10.3,28.5,10.3
	c6.4,0,12.8-1.3,18.9-4.2c15.6-7.3,25.6-23,25.6-40.4V112.2C578.7,95,568.7,79.4,553,72 M725.7,294.7c-21.9-10.4-48-1-58.8,21
	c-10.7,21.9-1.5,48.5,20.4,59.4c2.8,1.5,69.6,36.1,69.6,134.9c0,105.5-62.4,140.4-64.5,141.6c-21.9,11-30.9,37.8-19.9,59.8
	c7.9,15.6,23.5,24.6,39.9,24.6c6.7,0,13.5-1.5,19.9-4.7c4.6-2.3,113.7-58.8,113.7-221.3C845.8,353,730.5,297,725.7,294.7
	 M864.4,163.9c-20.5-13.2-47.8-7.2-61.2,13.3c-13.3,20.5-7.5,48,13,61.6C821,241.9,935,319.6,935,513.2
	c0,193.9-109.5,271.8-113.8,274.7c-20.5,13.7-25.9,41.3-12.4,61.8c8.6,12.9,22.7,19.9,37.1,19.9c8.5,0,17.1-2.4,24.7-7.5
	c6.2-4.4,153.3-105.2,153.3-349C1024,268.8,870.9,168,864.4,163.9"/>
</svg>
