<?xml version="1.0" encoding="utf-8"?>
<!-- Generator: Adobe Illustrator 18.0.0, SVG Export Plug-In . SVG Version: 6.00 Build 0)  -->
<!DOCTYPE svg PUBLIC "-//W3C//DTD SVG 1.1//EN" "http://www.w3.org/Graphics/SVG/1.1/DTD/svg11.dtd">
<svg version="1.1" id="图层_1" xmlns="http://www.w3.org/2000/svg" xmlns:xlink="http://www.w3.org/1999/xlink" x="0px" y="0px"
	 viewBox="0 0 1024 1024" style="enable-background:new 0 0 1024 1024;" xml:space="preserve">
<style type="text/css">
	.st0{fill-rule:evenodd;clip-rule:evenodd;}
</style>
<g>
	<path class="st0" d="M753.136,196.042c28.035,19.935,52.955,42.52,74.757,67.746c21.804,25.233,40.493,52.487,56.067,81.767
		c15.576,29.279,27.412,60.273,35.51,92.979c8.098,32.705,12.146,65.877,12.146,99.518c0,57.935-11.056,112.288-33.171,163.062
		c-22.115,50.771-52.019,95.003-89.708,132.688c-37.692,37.694-81.923,67.594-132.692,89.71
		c-50.769,22.116-105.127,33.174-163.056,33.174c-57.314,0-111.36-11.059-162.129-33.174C300.085,901.394,255.7,871.493,217.7,833.8
		c-38.002-37.688-67.904-81.918-89.708-132.688c-21.805-50.774-32.706-105.127-32.706-163.064c0-33.014,3.892-65.41,11.681-97.18
		c7.789-31.771,18.844-61.985,33.171-90.644c14.331-28.654,32.086-55.442,53.266-80.358c21.18-24.922,44.851-47.35,71.019-67.284
		c13.707-9.968,28.5-13.705,44.388-11.214c15.881,2.496,28.809,10.28,38.778,23.361c9.97,13.086,13.706,27.724,11.216,43.922
		c-2.497,16.197-10.28,29.279-23.361,39.249c-39.249,28.654-69.309,63.849-90.18,105.591
		c-20.864,41.739-31.298,86.591-31.298,134.557c0,41.115,7.784,79.899,23.361,116.342c15.572,36.443,36.907,68.212,64.004,95.31
		c27.104,27.104,58.873,48.595,95.316,64.479c36.443,15.885,75.221,23.826,116.342,23.826c41.113,0,79.892-7.942,116.334-23.826
		c36.443-15.884,68.218-37.375,95.315-64.479c27.098-27.099,48.59-58.868,64.474-95.31c15.889-36.443,23.829-75.227,23.829-116.342
		c0-48.588-11.211-94.534-33.637-137.829c-22.428-43.297-53.888-78.958-94.38-106.991c-13.705-9.345-21.96-22.117-24.761-38.315
		c-2.806-16.197,0.464-31.149,9.807-44.856c9.347-13.081,22.118-21.025,38.314-23.825
		C724.482,183.431,739.428,186.697,753.136,196.042L753.136,196.042L753.136,196.042z M512.988,540.854
		c-16.201,0-30.061-5.763-41.585-17.287c-11.525-11.526-17.288-25.388-17.288-41.587V126.893c0-16.197,5.763-30.215,17.288-42.05
		c11.525-11.837,25.386-17.753,41.585-17.753c16.817,0,30.989,5.917,42.515,17.753c11.525,11.836,17.288,25.852,17.288,42.05v355.09
		c0,16.198-5.763,30.061-17.288,41.587C543.977,535.091,529.805,540.854,512.988,540.854L512.988,540.854L512.988,540.854z"/>
</g>
</svg>
