<?xml version="1.0" encoding="utf-8"?>
<!-- Generator: Adobe Illustrator 18.0.0, SVG Export Plug-In . SVG Version: 6.00 Build 0)  -->
<!DOCTYPE svg PUBLIC "-//W3C//DTD SVG 1.1//EN" "http://www.w3.org/Graphics/SVG/1.1/DTD/svg11.dtd">
<svg version="1.1" id="图层_1" xmlns="http://www.w3.org/2000/svg" xmlns:xlink="http://www.w3.org/1999/xlink" x="0px" y="0px"
	 viewBox="0 0 1024 1024" style="enable-background:new 0 0 1024 1024;" xml:space="preserve">
<style type="text/css">
	.st0{fill-rule:evenodd;clip-rule:evenodd;fill:#000666;}
</style>
<g>
	<path class="st0" d="M838.84,817.181c-8.375,8.376-19.734,13.082-31.58,13.082c-11.844,0-23.205-4.706-31.579-13.082
		l-73.683-73.683l63.159-63.159l73.683,73.683C856.274,771.465,856.274,799.738,838.84,817.181L838.84,817.181z M207.295,690.864
		c-139.522-139.522-139.522-365.721,0-505.228c139.522-139.522,365.706-139.522,505.228,0
		c139.521,139.522,139.521,365.721,0,505.228C573.016,830.384,346.817,830.384,207.295,690.864L207.295,690.864z M670.426,227.747
		c-116.256-116.255-304.765-116.255-421.02,0c-116.27,116.27-116.27,304.765,0,421.02s304.764,116.27,421.02,0
		S786.682,344.003,670.426,227.747L670.426,227.747z"/>
</g>
</svg>
