<?xml version="1.0" encoding="utf-8"?>
<!-- Generator: Adobe Illustrator 18.0.0, SVG Export Plug-In . SVG Version: 6.00 Build 0)  -->
<!DOCTYPE svg PUBLIC "-//W3C//DTD SVG 1.1//EN" "http://www.w3.org/Graphics/SVG/1.1/DTD/svg11.dtd">
<svg version="1.1" id="图形" xmlns="http://www.w3.org/2000/svg" xmlns:xlink="http://www.w3.org/1999/xlink" x="0px" y="0px"
	 viewBox="15.167 -16.333 1000.636 1000.678" style="enable-background:new 15.167 -16.333 1000.636 1000.678;"
	 xml:space="preserve">
<path d="M851.911,635.8c0,0-59.231,0.225-125.348,0.225c-49.263,0-83.544-13.193-83.544-75.891c0-58.086,33.187-79.289,87.08-79.329
	h121.813c13.046,0,23.62,9.087,23.62,22.146v109.225C875.535,625.222,864.957,635.8,851.911,635.8L851.911,635.8z M706.872,526.628
	c-18.52,0-33.537,14.999-33.537,33.506c0,18.523,15.017,33.524,33.537,33.524c18.523,0,33.51-15.001,33.51-33.524
	C740.382,541.627,725.395,526.628,706.872,526.628L706.872,526.628z M640.066,649.975c6.644,0,164.332,1.037,207.142,1.037v50.486
	c0,65.223-48.178,118.087-113.418,118.087H284.994c-65.21,0-118.091-52.863-118.091-118.087V418.785
	c0-65.222,52.881-122.815,118.091-122.815H733.79c65.24,0,113.418,57.593,113.418,122.815v47.988H639.323
	C592.074,466.774,592.074,649.975,640.066,649.975L640.066,649.975z M581.738,186.278l-203.709,82.531H262.861l332.909-154.86
	l121.039,154.86h-74.535L581.738,186.278z M581.738,186.278"/>
</svg>
