<?xml version="1.0" encoding="utf-8"?>
<!-- Generator: Adobe Illustrator 21.0.2, SVG Export Plug-In . SVG Version: 6.00 Build 0)  -->
<svg version="1.1" id="图层_1" xmlns="http://www.w3.org/2000/svg" xmlns:xlink="http://www.w3.org/1999/xlink" x="0px" y="0px"
	 viewBox="0 0 1024 1024" style="enable-background:new 0 0 1024 1024;" xml:space="preserve">
<path d="M896.4,147H792.6v170.3H228V147H126.1c-21.3,0-38.6,17.3-38.6,38.6v791.3c0,21.3,17.3,38.6,38.6,38.6h770.3
	c21.3,0,38.6-17.3,38.6-38.6V185.5C935,164.2,917.7,147,896.4,147L896.4,147z M810.8,477.1L476.7,886.2c1.5,5.1-6,5.8-11.1,1.7
	L222.5,688.8c-5.1-4.1-5.8-11.7-1.7-16.8l40.6-49.7c4.1-5.1,11.7-5.8,16.8-1.7l184.5,152.7l285.8-349.9c4.1-7.1,11.7-7.8,16.8-3.7
	l47.1,38.5C817.4,462.4,820.3,466.3,810.8,477.1L810.8,477.1z M655.9,97.3V66c0-31.8-25.8-57.6-57.6-57.6H424
	c-31.8,0-57.6,25.8-57.6,57.6v31.3h-67.7v155.3h423.7V97.3H655.9z M511.4,195.5c-35.1,0-63.5-28.4-63.5-63.5
	c0-35.1,28.4-63.5,63.5-63.5c35.1,0,63.5,28.4,63.5,63.5C575,172.1,546.5,195.5,511.4,195.5L511.4,195.5z M511.4,195.5"/>
</svg>
